<?xml version="1.0" encoding="UTF-8" standalone="no"?>
<!-- Created with Inkscape (http://www.inkscape.org/) -->

<svg
   width="210mm"
   height="297mm"
   viewBox="0 0 210 297"
   version="1.1"
   id="svg5"
   inkscape:export-filename="C:\Users\DmitryB\Desktop\bitmap.png"
   inkscape:export-xdpi="121"
   inkscape:export-ydpi="121"
   inkscape:version="1.1.2 (b8e25be833, 2022-02-05)"
   sodipodi:docname="roaming.svg"
   xmlns:inkscape="http://www.inkscape.org/namespaces/inkscape"
   xmlns:sodipodi="http://sodipodi.sourceforge.net/DTD/sodipodi-0.dtd"
   xmlns="http://www.w3.org/2000/svg"
   xmlns:svg="http://www.w3.org/2000/svg">
  <sodipodi:namedview
     id="namedview7"
     pagecolor="#ffffff"
     bordercolor="#666666"
     borderopacity="1.0"
     inkscape:pageshadow="2"
     inkscape:pageopacity="0.0"
     inkscape:pagecheckerboard="0"
     inkscape:document-units="mm"
     showgrid="false"
     inkscape:zoom="0.7198092"
     inkscape:cx="339.67335"
     inkscape:cy="179.90879"
     inkscape:window-width="4300"
     inkscape:window-height="1721"
     inkscape:window-x="2391"
     inkscape:window-y="-445"
     inkscape:window-maximized="1"
     inkscape:current-layer="layer1" />
  <defs
     id="defs2">
    <filter
       inkscape:collect="always"
       style="color-interpolation-filters:sRGB"
       id="filter6854"
       x="-0.17646609"
       y="-0.085178667"
       width="1.3529295"
       height="1.1703607">
      <feGaussianBlur
         inkscape:collect="always"
         stdDeviation="12.132174"
         id="feGaussianBlur6856" />
    </filter>
  </defs>
  <g
     inkscape:label="Layer 1"
     inkscape:groupmode="layer"
     id="layer1">
    <g
       id="g3717"
       transform="matrix(0.26458333,0,0,0.26458333,-30.700844,-13.304437)">
      <path
         id="path3633"
         style="fill:#000000;stroke:#000000;stroke-width:10;stroke-linejoin:round"
         inkscape:connector-curvature="0"
         d="m 314,64.362 -68.938,16.438 -24.281,20 19.562,123.28 -16.688,3.8438 c 1.9806,24.697 3.4338,52.856 4.9375,82.125 -2.018,26.59 -5.8062,62.311 -12.812,94.312 -13.214,60.357 -27.844,81.062 -27.844,81.062 0,0 -0.66582,-0.17043 -1.625,-0.375 -0.28131,-2.1784 -0.48913,-4.0108 -0.8125,-6.4062 1.7398,-4.2809 3.875,-10.38 3.875,-14.625 0,-6.5206 -1.8045,-20.77 -11.625,-11.25 -0.16834,-0.0392 -0.32948,-0.0876 -0.5,-0.125 -0.65169,-0.14297 -1.4123,-0.36884 -2.2188,-0.65625 0.0389,-0.53653 0.0312,-1.0791 0.0312,-1.5625 0,-10.714 -1.043,-12.488 -3.1875,-15.344 -1.0642,-1.4171 -2.2332,-1.95 -3.4375,-1.8438 -3.1931,0.2818 -6.6537,5.134 -9.2188,10.375 -0.79456,-0.46521 -1.5306,-0.87011 -2.2812,-1.2812 1.131,-12.416 0.14173,-19.406 -4.7188,-19.406 -5.7143,0 -18.219,27.513 -18.219,39.656 0,12.143 -7.8527,45.719 15.719,45.719 23.571,0 47.509,-3.5804 58.938,-31.438 8.7254,-21.268 18.064,-60.638 23.906,-95.719 4.611,71.871 11.949,140.13 29.781,172.94 14.195,-1.3413 30.404,-3.7059 47,-6.9062 5.7302,11.852 23.058,48.326 25.719,61.531 3.1663,15.714 -4.4478,28.915 -9.9062,32.844 -5.4584,3.9286 -36.656,14.281 -36.656,14.281 0,0 -13.478,-3.9018 -25.281,-0.6875 -11.804,3.2143 -10.632,14.638 -10.781,34.281 -0.14921,19.643 9.5312,37.844 9.5312,37.844 0,0 38.363,29.277 79.875,28.562 41.512,-0.71429 49.86,-17.125 57.812,-27.125 7.9526,-10 1.1785,-43.933 -22.25,-48.219 -23.428,-4.2857 -65.844,10.344 -65.844,10.344 0,0 -28.329,-14.277 -21.531,-23.562 6.7978,-9.2857 25.655,-11.772 43.375,-22.844 17.72,-11.071 12.215,-34.295 8.5312,-63.938 -2.3808,-19.157 -8.6937,-31.273 -12.875,-37.469 5.9559,-1.3793 11.873,-2.8594 17.688,-4.4375 7.7989,3.1317 43.636,18.436 76.531,47.219 37.143,32.5 42.156,47.844 49.656,47.844 7.5,0 15.339,0.37054 32.125,-17.844 16.786,-18.214 41.094,-52.875 41.094,-52.875 0,0 8.933,-7.4866 0.71875,-30.344 -8.2143,-22.857 -22.165,-41.076 -31.094,-48.219 -8.9286,-7.1429 -24.272,-13.92 -32.844,6.4375 -8.5714,20.357 -0.3616,53.911 1.7812,72.125 2.1429,18.214 -11.062,52.875 -11.062,52.875 0,0 -41.076,-36.786 -73.219,-60 -23.103,-16.685 -34.913,-20.449 -39.75,-21.25 10.188,-3.1581 19.833,-6.6103 28.438,-10.344 10.029,-5.81 5.6562,-12.562 5.6562,-12.562 -41.176,-83.236 -25.244,-136.2 -28.969,-224.81 10.932,17.754 70.965,73.433 81.125,82.938 11.071,10.357 35,1.4375 35,1.4375 -6.3302,15.187 -28.993,36.363 -10.719,38.938 18.571,-2.1428 20.344,-35 20.344,-35 0,0 0.36608,11.424 -1.0625,19.281 -1.2206,6.7132 -13.58,34.991 6.0625,31.062 19.643,-3.9286 8.9375,-56.781 8.9375,-56.781 5.2647,15.422 2.6472,49.646 17.125,53.938 12.22,-7.759 -1.3516,-48.38 -9.625,-59.656 7.5,1.7857 20.353,24.643 24.281,37.5 3.9286,12.857 11.795,22.504 16.438,10.719 4.6429,-11.786 -4.6607,-37.5 -20.375,-57.5 -15.7143,-20 -38.92,-8.9375 -63.562,-3.9375 -24.643,5 -21.781,3.5938 -49.281,-18.906 -22.326,-18.267 -47.202,-51.933 -55.875,-64.094 -1.5531,-20.844 -4.3267,-43.66 -9.1875,-69.188 l -18.062,4.1562 -23.375,-137.38 z" />
      <g
         id="g3609"
         transform="translate(1.4286,4.2857)">
        <path
           id="path3607"
           style="fill:#ffe6d5"
           inkscape:connector-curvature="0"
           d="m 161.42,494.03 c -6.6645,-0.37928 -12.264,-0.83631 -12.443,-1.0156 -0.17931,-0.17931 -1.4074,-5.357 -2.7292,-11.506 l -2.4,-11.18 3.67,-16.85 c 2.0222,-9.2692 3.9183,-17.115 4.2134,-17.434 0.49124,-0.53207 5.7964,1.9824 11.088,5.2556 7.2524,4.4856 12.752,7.1892 16.133,7.931 2.1266,0.46657 4.1474,1.0913 4.4905,1.3882 0.58475,0.50605 6.3905,42.802 5.9374,43.255 -0.65462,0.65463 -17.567,0.75086 -27.964,0.15913 z" />
        <g
           id="g3226"
           style="fill:#ffe6d5"
           inkscape:export-ydpi="121"
           inkscape:export-filename="C:\Documents and Settings\oscar\Escritorio\path3214.png"
           transform="translate(-63.03,-27.091)"
           inkscape:export-xdpi="121">
          <path
             id="path3216"
             style="fill:#ffe6d5;fill-rule:evenodd;stroke:#000000;stroke-width:2.5;stroke-linejoin:round"
             inkscape:connector-curvature="0"
             d="m 389.85,561.65 c 0,0 13.143,12.857 16.827,42.5 3.6839,29.643 9.1894,52.857 -8.531,63.929 -17.72,11.071 -36.584,13.571 -43.381,22.857 -6.7978,9.2857 21.535,23.571 21.535,23.571 0,0 42.423,-14.643 65.851,-10.357 23.428,4.2857 30.184,38.214 22.231,48.214 -7.9526,10 -16.298,26.429 -57.81,27.143 -41.512,0.71429 -79.88,-28.571 -79.88,-28.571 0,0 -9.6604,-18.214 -9.5111,-37.857 0.1492,-19.643 -1.0172,-31.071 10.786,-34.286 11.804,-3.2143 25.274,0.71429 25.274,0.71429 0,0 31.209,-10.357 36.667,-14.286 5.4584,-3.9286 13.072,-17.143 9.9054,-32.857 -3.1664,-15.714 -28.278,-66.786 -28.278,-66.786 l 18.316,-3.9286 z" />
          <path
             id="path3218"
             inkscape:connector-curvature="0"
             sodipodi:nodetypes="cs"
             style="fill:#ffe6d5;stroke:#000000;stroke-width:2.5;stroke-linecap:round;stroke-linejoin:round"
             d="m 390.25,711.59 c 0,0 -20.616,5.7633 -29.074,17.087" />
          <path
             id="path3220"
             inkscape:connector-curvature="0"
             sodipodi:nodetypes="cs"
             style="fill:#ffe6d5;stroke:#000000;stroke-width:2.5;stroke-linecap:round;stroke-linejoin:round"
             d="m 378.72,714.36 c 0,0 -21.103,2.0211 -31.008,11.722" />
          <path
             id="path3222"
             inkscape:connector-curvature="0"
             sodipodi:nodetypes="cs"
             style="fill:#ffe6d5;stroke:#000000;stroke-width:2.5;stroke-linecap:round;stroke-linejoin:round"
             d="m 378.75,670.33 c -10.723,6.0233 -21.619,6.4168 -32.508,13.697" />
        </g>
        <path
           id="path3224"
           style="fill:#ffe6d5;fill-rule:evenodd;stroke:#000000;stroke-width:2.5;stroke-linecap:round;stroke-linejoin:round"
           d="m 346.79,534.51 c 0,0 41.071,15.357 78.214,47.857 37.143,32.5 42.143,47.857 49.643,47.857 7.5,0 15.357,0.35715 32.143,-17.857 16.786,-18.21415 41.071,-52.857 41.071,-52.857 0,0 8.9286,-7.5 0.71429,-30.357 -8.21431,-22.857 -22.143,-41.071 -31.071,-48.214 -8.9286,-7.1429 -24.286,-13.929 -32.857,6.4286 -8.5714,20.357 -0.35714,53.929 1.7857,72.143 2.1429,18.214 -11.071,52.857 -11.071,52.857 0,0 -41.071,-36.786 -73.214,-60 -32.143,-23.214 -42.5,-21.429 -42.5,-21.429 l -12.857,3.5714 z"
           inkscape:export-ydpi="121"
           inkscape:export-filename="C:\Documents and Settings\oscar\Escritorio\path3214.png"
           inkscape:connector-curvature="0"
           inkscape:export-xdpi="121" />
        <path
           id="path3210"
           style="fill:#ffe6d5;fill-rule:evenodd;stroke:#000000;stroke-width:2.5;stroke-linejoin:round"
           d="m 362.92,258.49 c 0,0 31.786,46.429 59.286,68.929 27.5,22.5 24.643,23.929 49.286,18.929 24.643,-5 47.857,-16.071 63.571,3.9286 15.714,19.9996 25,45.714 20.357,57.5 -4.6428,11.786 -12.5,2.1429 -16.429,-10.714 -3.9286,-12.857 -16.786,-35.714 -24.286,-37.5 8.2734,11.276 21.863,51.884 9.6428,59.643 -14.478,-4.2917 -11.878,-38.506 -17.143,-53.929 0,0 10.714,52.857 -8.9286,56.786 -19.643,3.9286 -7.292,-24.358 -6.0714,-31.071 1.4286,-7.8571 1.0714,-19.286 1.0714,-19.286 0,0 -1.7857,32.857 -20.357,35 -18.275,-2.5747 4.384,-23.742 10.714,-38.929 0,0 -23.929,8.9286 -35,-1.4286 -11.071,-10.3572 -81.429,-75.605 -82.857,-86.786 -1.1769,-9.2108 -2.5,-19.643 -2.8572,-21.071 z"
           inkscape:export-ydpi="121"
           sodipodi:nodetypes="cssssscccsscccssc"
           inkscape:export-filename="C:\Documents and Settings\oscar\Escritorio\path3214.png"
           inkscape:connector-curvature="0"
           inkscape:export-xdpi="121" />
        <path
           id="path2397"
           style="fill:#dbe3e2;fill-rule:evenodd;stroke:#000000;stroke-width:2.5;stroke-linejoin:round"
           d="M 337.86,198.08 314.29,59.5 l -68.93,16.434 -24.286,20 19.643,123.93 97.143,-21.786 z"
           inkscape:export-ydpi="121"
           inkscape:export-filename="C:\Documents and Settings\oscar\Escritorio\path3214.png"
           inkscape:connector-curvature="0"
           inkscape:export-xdpi="121" />
        <path
           id="path3169"
           style="fill:none;stroke:#000000;stroke-width:2.5;stroke-linejoin:round"
           d="m 245.36,75.576 13.929,140"
           inkscape:export-ydpi="121"
           inkscape:export-filename="C:\Documents and Settings\oscar\Escritorio\path3214.png"
           inkscape:connector-curvature="0"
           inkscape:export-xdpi="121" />
        <path
           id="path3171"
           style="fill:#ffffff;fill-rule:evenodd;stroke:#000000;stroke-width:2.5;stroke-linejoin:round"
           d="m 255.71,94.862 8.5714,48.571 22.143,-5.3571 -8.5714,-50.714 -22.143,7.5 z"
           inkscape:export-ydpi="121"
           sodipodi:nodetypes="ccccc"
           inkscape:export-filename="C:\Documents and Settings\oscar\Escritorio\path3214.png"
           inkscape:connector-curvature="0"
           inkscape:export-xdpi="121" />
        <path
           id="path3173"
           style="fill:#ffffff;fill-rule:evenodd;stroke:#000000;stroke-width:2.5;stroke-linejoin:round"
           d="m 285.04,85.219 8.5714,51.786 22.5,-5 -8.5714,-46.429 -22.5,-0.35715 z"
           inkscape:export-ydpi="121"
           sodipodi:nodetypes="ccccc"
           inkscape:export-filename="C:\Documents and Settings\oscar\Escritorio\path3214.png"
           inkscape:connector-curvature="0"
           inkscape:export-xdpi="121" />
        <path
           id="path3175"
           style="fill:#000000;stroke:#000000;stroke-width:2.5;stroke-linejoin:round"
           d="m 282.95,121.06 c -1.3076,1.9875 -3.3447,3.2659 -5.6316,3.2659 -3.9429,0 -7.1429,-3.8 -7.1429,-8.4822 0,-4.6821 3.2,-8.4821 7.1429,-8.4821 1.6742,0 3.2144,0.68511 4.4326,1.832 l 1.199,11.866 z"
           inkscape:export-ydpi="121"
           sodipodi:nodetypes="cccccc"
           inkscape:export-filename="C:\Documents and Settings\oscar\Escritorio\path3214.png"
           inkscape:connector-curvature="0"
           inkscape:export-xdpi="121" />
        <ellipse
           id="path3177"
           style="fill:#000000;stroke:#000000;stroke-width:2.5;stroke-linejoin:round"
           inkscape:export-ydpi="121"
           inkscape:export-filename="C:\Documents and Settings\oscar\Escritorio\path3214.png"
           transform="translate(-36.071,-21.875)"
           inkscape:export-xdpi="121"
           cx="332.67856"
           cy="132.98718"
           rx="7.1428571"
           ry="8.4821424" />
        <path
           id="path3200"
           style="fill:#435ebe;fill-rule:evenodd;stroke:#000000;stroke-width:2.5;stroke-linejoin:round;fill-opacity:1;opacity:1;filter:url(#filter6854)"
           d="m 357.14,194.15 -131.79,30.357 c 8.3538,104.17 7.6162,268.94 38.698,326.13 38.264,-3.6156 91.24,-14.448 126.79,-29.875 10.029,-5.81 5.642,-12.553 5.642,-12.553 -53.3,-107.77 -10.9,-164.74 -39.34,-314.07 z"
           inkscape:export-ydpi="121"
           sodipodi:nodetypes="cccccc"
           inkscape:export-filename="C:\Documents and Settings\oscar\Escritorio\path3214.png"
           inkscape:connector-curvature="0"
           inkscape:export-xdpi="121" />
        <path
           id="path3202"
           style="fill:#ffe6d5;fill-rule:evenodd;stroke:#000000;stroke-width:2.5;stroke-linejoin:round"
           d="m 232.5,266.65 c 0,0 -1.7857,73.929 -15,134.29 -13.214,60.357 -27.857,81.071 -27.857,81.071 0,0 -10.357,-2.8571 -21.071,-0.71429 -10.714,2.1429 -21.071,3.9286 -21.071,3.9286 0,0 8.2143,-22.5 10.357,-39.286 2.1429,-16.786 1.7857,-26.429 -3.9286,-26.429 -5.7143,0 -18.214,27.5 -18.214,39.643 0,12.143 -7.8572,45.714 15.714,45.714 23.5712,0 47.5,-3.5714 58.929,-31.429 11.429,-27.857 23.929,-86.786 28.214,-126.43 4.2857,-39.643 2.8571,-81.071 2.8571,-81.071 v 0.35714 l -8.9286,0.35715 z"
           inkscape:export-ydpi="121"
           inkscape:export-filename="C:\Documents and Settings\oscar\Escritorio\path3214.png"
           inkscape:connector-curvature="0"
           inkscape:export-xdpi="121" />
        <path
           id="path3206"
           style="fill:#ffe6d5;stroke:#000000;stroke-width:2.5;stroke-linejoin:round"
           d="m 166.79,482.36 c 0,0 10,-24.643 10,-35.357 0,-10.714 -1.0697,-12.501 -3.2143,-15.357 -6.8106,-9.0696 -17.779,17.648 -16.429,21.429"
           inkscape:export-ydpi="121"
           sodipodi:nodetypes="cssc"
           inkscape:export-filename="C:\Documents and Settings\oscar\Escritorio\path3214.png"
           inkscape:connector-curvature="0"
           inkscape:export-xdpi="121" />
        <path
           id="path3208"
           style="fill:#ffe6d5;stroke:#000000;stroke-width:2.5;stroke-linejoin:round"
           d="m 185,480.22 c 0,0 6.0714,-12.5 6.0714,-19.643 0,-7.1429 -2.1429,-23.571 -14.643,-7.8572"
           inkscape:export-ydpi="121"
           sodipodi:nodetypes="css"
           inkscape:export-filename="C:\Documents and Settings\oscar\Escritorio\path3214.png"
           inkscape:connector-curvature="0"
           inkscape:export-xdpi="121" />
        <path
           id="path3212"
           style="fill:none;stroke:#000000;stroke-width:2.5;stroke-linejoin:round"
           d="m 253.92,217.94 c 19.952,140.84 -14.749,181.22 38.62,329.54"
           inkscape:export-ydpi="121"
           sodipodi:nodetypes="cc"
           inkscape:export-filename="C:\Documents and Settings\oscar\Escritorio\path3214.png"
           inkscape:connector-curvature="0"
           inkscape:export-xdpi="121" />
        <ellipse
           id="path3214"
           style="fill:#ffff00;stroke:#000000;stroke-width:2.5;stroke-linejoin:round"
           inkscape:export-ydpi="121"
           transform="matrix(0.93633,-0.35111,0.35111,0.93633,-180.56,188.73)"
           inkscape:export-xdpi="121"
           cx="375.77673"
           cy="460.41278"
           rx="10.101525"
           ry="13.131983" />
      </g>
    </g>
  </g>
</svg>
